<svg preserveAspectRatio="xMidYMid meet" data-bbox="0 0 1002.984 210" viewBox="0 0 1002.98 210" xmlns="http://www.w3.org/2000/svg" data-type="ugc" role="presentation" aria-hidden="true" aria-label="">
    <g>
        <defs>
            <linearGradient gradientUnits="userSpaceOnUse" gradientTransform="matrix(1 0 0 -1 0 1189.89)" y2="1142.47" x2="123.59" y1="1020" x1="52.89" id="3600e340-5a7b-4798-ad67-a1378c1ed0f9_comp-lmaijz7l_r_comp-ler2kfqi5">
                <stop stop-color="#ffad7f" offset="0"></stop>
                <stop stop-color="#ff836f" offset=".21"></stop>
                <stop stop-color="#ff595e" offset=".46"></stop>
                <stop stop-color="#ff3a52" offset=".68"></stop>
                <stop stop-color="#ff274b" offset=".87"></stop>
                <stop stop-color="#ff2048" offset="1"></stop>
            </linearGradient>
            <linearGradient gradientUnits="userSpaceOnUse" gradientTransform="matrix(1 0 0 -1 0 1563.28)" y2="1392.13" x2="88.24" y1="1423.64" x1="88.24" id="281d01ef-c990-4793-9bd1-d5f23e08df58_comp-lmaijz7l_r_comp-ler2kfqi5">
                <stop stop-opacity="0" stop-color="#ffffff" offset="0"></stop>
                <stop stop-opacity=".02" stop-color="#ffffff" offset=".28"></stop>
                <stop stop-opacity=".06" stop-color="#ffffff" offset=".56"></stop>
                <stop stop-opacity=".14" stop-color="#ffffff" offset=".83"></stop>
                <stop stop-opacity=".2" stop-color="#ffffff" offset="1"></stop>
            </linearGradient>
            <linearGradient gradientUnits="userSpaceOnUse" gradientTransform="matrix(-1 0 0 1 8752.01 16753.55)" y2="-16713.8" x2="8663.77" y1="-16680.74" x1="8663.77" id="4c90191a-5451-4bad-bc11-bd638223bccf_comp-lmaijz7l_r_comp-ler2kfqi5">
                <stop stop-opacity="0" stop-color="#000000" offset="0"></stop>
                <stop stop-opacity=".39" stop-color="#000000" offset=".99"></stop>
                <stop stop-opacity=".4" stop-color="#000000" offset="1"></stop>
            </linearGradient>
            <linearGradient gradientUnits="userSpaceOnUse" gradientTransform="matrix(1 0 0 -1 0 1189.89)" y2="1084.89" x2="242.67" y1="1084.89" x1="0" id="e976b554-89ca-4e70-b1f9-b7ed4f7a6792_comp-lmaijz7l_r_comp-ler2kfqi5">
                <stop stop-color="#ffad7f" offset="0"></stop>
                <stop stop-color="#ffa77c" offset=".02"></stop>
                <stop stop-color="#ff7e6d" offset=".17"></stop>
                <stop stop-color="#ff5c5f" offset=".33"></stop>
                <stop stop-color="#ff4155" offset=".49"></stop>
                <stop stop-color="#ff2f4e" offset=".65"></stop>
                <stop stop-color="#ff2449" offset=".82"></stop>
                <stop stop-color="#ff2048" offset="1"></stop>
            </linearGradient>
            <linearGradient gradientUnits="userSpaceOnUse" gradientTransform="matrix(1 0 0 -1 0 1189.89)" y2="1062.88" x2="242.67" y1="1062.88" x1="22.09" id="817394ac-11f0-4817-9c1c-ec4dcaf7855d_comp-lmaijz7l_r_comp-ler2kfqi5">
                <stop stop-color="#ff2048" offset="0"></stop>
                <stop stop-color="#ff2349" offset=".26"></stop>
                <stop stop-color="#ff2b4c" offset=".43"></stop>
                <stop stop-color="#ff3a52" offset=".57"></stop>
                <stop stop-color="#ff4f5a" offset=".69"></stop>
                <stop stop-color="#ff6965" offset=".8"></stop>
                <stop stop-color="#ff8a71" offset=".91"></stop>
                <stop stop-color="#ffad7f" offset="1"></stop>
            </linearGradient>
        </defs>
        <g>
            <g>
                <g>
                    <path d="M688.71 88.44a9.182 9.182 0 0 1 2.53 6.69v67.64c0 12.36-3.75 21.51-11.26 27.44s-17.03 8.9-28.56 8.89c-4.14-.14-8.25-.65-12.3-1.52-3.8-.6-7.53-1.61-11.12-3-4.87-2.13-7.31-5.07-7.3-8.82.02-.83.17-1.65.44-2.43a9.466 9.466 0 0 1 3.06-5.09 7.307 7.307 0 0 1 4.7-1.75c.96 0 1.92.15 2.83.46.4.1 2.86 1 7.39 2.81a34.23 34.23 0 0 0 12.3 2.66c7.33 0 12.83-1.5 16.48-4.49s5.47-7.22 5.44-12.69v-7.29a29.854 29.854 0 0 1-9.91 8.51 28.192 28.192 0 0 1-14.25 3.8c-6.72.07-13.32-1.81-19-5.4a37.418 37.418 0 0 1-13.5-15 46.913 46.913 0 0 1-4.92-21.73 47.926 47.926 0 0 1 4.84-21.82 37.217 37.217 0 0 1 13.28-15 34.028 34.028 0 0 1 18.72-5.4c4.9-.04 9.75 1.05 14.16 3.19 4.01 1.85 7.61 4.49 10.59 7.75v-1.72c-.07-2.45.85-4.83 2.54-6.61a8.474 8.474 0 0 1 6.41-2.66c2.4-.07 4.73.87 6.41 2.58Zm-21 57.84c4.23-4.81 5.8-10.87 5.8-18.16s-1.57-13.38-5.8-18.24-9.63-7.88-16.29-7.88-12.08 3-16.26 7.91-5.73 10.94-5.73 18.24 1.56 13.35 5.73 18.16a20.524 20.524 0 0 0 16.26 7.22c6.26.17 12.26-2.49 16.33-7.25h-.04Z"></path>
                    <path d="M363.69 58.68a9.014 9.014 0 0 1 2.59 6.69v93.93a9.06 9.06 0 0 1-2.59 6.61 8.676 8.676 0 0 1-6.53 2.66 8.6 8.6 0 0 1-6.46-2.57 9.553 9.553 0 0 1-2.66-6.54 31.418 31.418 0 0 1-10.26 7.54c-4.24 2.06-8.9 3.12-13.61 3.11-6.72.07-13.32-1.8-19-5.39a37.854 37.854 0 0 1-13.45-15 46.767 46.767 0 0 1-4.94-21.72 47.627 47.627 0 0 1 4.87-21.81c2.99-6.15 7.6-11.36 13.35-15.06a33.782 33.782 0 0 1 18.62-5.4c4.69-.03 9.34.87 13.68 2.66 3.94 1.61 7.56 3.9 10.7 6.77V65.37c-.07-2.46.86-4.85 2.58-6.62a8.735 8.735 0 0 1 6.54-2.66c2.45-.08 4.83.85 6.57 2.59Zm-21.12 87.47c4.15-4.81 6-10.87 6-18.16s-1.87-13.38-6-18.24S333 102 326.45 102s-11.8 2.91-16 7.78-6 10.94-6 18.24 1.84 13.35 5.95 18.16a20.01 20.01 0 0 0 16 7.22c6.22.19 12.18-2.48 16.17-7.25Z"></path>
                    <path d="M455.35 88.32a8.983 8.983 0 0 1 2.58 6.68v64.3c.07 2.46-.86 4.85-2.58 6.61a8.735 8.735 0 0 1-6.54 2.66c-2.42.09-4.77-.85-6.46-2.58a9.553 9.553 0 0 1-2.66-6.54 32.88 32.88 0 0 1-23.86 10.64 34.8 34.8 0 0 1-19-5.39 37.713 37.713 0 0 1-13.45-15 46.535 46.535 0 0 1-4.94-21.7 47.746 47.746 0 0 1 4.86-21.81 37.402 37.402 0 0 1 13.3-15.05 33.782 33.782 0 0 1 18.62-5.4c4.69-.03 9.34.87 13.68 2.66 3.97 1.6 7.62 3.89 10.79 6.77V95c-.07-2.46.86-4.84 2.58-6.61a8.735 8.735 0 0 1 6.54-2.66c2.44-.07 4.81.87 6.54 2.59Zm-21.13 57.83c4.15-4.81 6.22-10.87 6.23-18.16 0-7.29-2.07-13.37-6.23-18.24-4.16-4.87-9.53-7.78-16.11-7.78s-11.81 2.91-16 7.78-6.24 10.94-6.24 18.24 2.06 13.35 6.16 18.16a20.04 20.04 0 0 0 16 7.22c6.22.2 12.19-2.46 16.19-7.22Z"></path>
                    <path d="M514.7 153.45a8.04 8.04 0 0 1 1.75 5.39c0 2.74-1.5 5.05-4.49 6.92a18.57 18.57 0 0 1-10.1 2.81c-6.29 0-11.59-1.33-15.89-4-4.3-2.67-6.45-8.37-6.46-17.1V102h-7c-2.28.06-4.48-.82-6.08-2.44a7.18 7.18 0 0 1-2.43-5.62c-.05-2.21.83-4.33 2.43-5.85a8.441 8.441 0 0 1 6.08-2.36h7v-6.68c-.11-5.02 3.88-9.17 8.9-9.28h.37c2.41-.05 4.73.91 6.39 2.66a9.131 9.131 0 0 1 2.58 6.62v6.68h10.79a8.322 8.322 0 0 1 8.52 8.12v.39c.05 2.21-.84 4.34-2.44 5.86-1.62 1.57-3.62 1.9-6.08 1.9h-10.79v44.71c0 2.13.56 3.67 1.67 4.64a6.767 6.767 0 0 0 4.56 1.44c1.14-.06 2.26-.26 3.35-.6 1.1-.48 2.29-.74 3.49-.76 1.53.05 2.96.79 3.88 2.02Z"></path>
                    <path d="M597 88.44a9.099 9.099 0 0 1 2.58 6.69v64.3c.06 2.45-.87 4.82-2.58 6.57a8.772 8.772 0 0 1-6.54 2.66c-2.42.09-4.77-.85-6.46-2.59a9.529 9.529 0 0 1-2.66-6.53 32.974 32.974 0 0 1-23.86 10.64c-6.72.08-13.32-1.8-19-5.4a37.812 37.812 0 0 1-13.46-15 46.798 46.798 0 0 1-4.93-21.73c-.1-7.54 1.58-14.99 4.91-21.75a37.266 37.266 0 0 1 13.3-15 33.782 33.782 0 0 1 18.62-5.4c4.69-.03 9.34.87 13.68 2.66 3.97 1.6 7.62 3.88 10.79 6.76v-.15c-.07-2.46.86-4.85 2.58-6.61a8.735 8.735 0 0 1 6.54-2.66c2.42-.07 4.76.85 6.49 2.54Zm-21.13 57.84c4.15-4.81 6.23-10.87 6.23-18.16s-2.08-13.37-6.23-18.24c-4.16-4.87-9.53-7.91-16.11-7.91s-11.81 3-16 7.91-6.24 10.94-6.24 18.24 2.06 13.35 6.16 18.16c3.94 4.73 9.84 7.4 16 7.22 6.22.2 12.19-2.46 16.2-7.22h-.01Z"></path>
                    <path d="M770.28 88.52a9.092 9.092 0 0 1 2.58 6.61v40.13c0 10.94-3 19.5-9 25.69-6 6.19-14.59 9.28-25.77 9.27-11.14 0-19.7-3.09-25.68-9.27s-8.98-14.74-9-25.69V95.13c-.06-2.46.87-4.85 2.59-6.61a9.351 9.351 0 0 1 13.07 0 9.101 9.101 0 0 1 2.59 6.61v40.13c0 6.18 1.37 10.76 4.1 13.75s6.84 4.48 12.31 4.49c5.58 0 9.74-1.5 12.47-4.49 2.73-2.99 4.1-7.58 4.1-13.75V95.13c-.07-2.46.87-4.85 2.59-6.61a9.351 9.351 0 0 1 13.07 0h-.02Z"></path>
                    <path d="M859.65 132.07a9.638 9.638 0 0 1-6.39 2.28h-50.15c.96 5.55 3.93 10.56 8.35 14.06a23.44 23.44 0 0 0 14.75 5.09c3.28.11 6.56-.27 9.73-1.14 1.94-.58 3.8-1.4 5.54-2.43 1.37-.86 2.31-1.45 2.82-1.75 1.59-.85 3.36-1.32 5.16-1.37 2.06-.03 4.05.8 5.48 2.28a7.282 7.282 0 0 1 2.28 5.32c0 2.74-1.42 5.22-4.26 7.45a36.272 36.272 0 0 1-11.4 5.93c-4.65 1.6-9.53 2.42-14.44 2.43-8.51 0-15.93-1.77-22.27-5.32a37.141 37.141 0 0 1-14.66-14.67 42.63 42.63 0 0 1-5.17-21c0-8.71 1.82-16.38 5.47-23 3.34-6.27 8.34-11.5 14.44-15.13a37.39 37.39 0 0 1 19.15-5.24c6.7 0 13.26 1.9 18.92 5.47 5.91 3.63 10.8 8.71 14.22 14.75 3.52 6.1 5.36 13.02 5.32 20.06a7.87 7.87 0 0 1-2.89 5.93Zm-56.39-12.92h39.82v-1.07c-.46-4.35-2.72-8.32-6.23-10.94a19.71 19.71 0 0 0-12.77-4.56c-11.76 0-18.7 5.52-20.82 16.57Z"></path>
                    <path d="M868.62 151.52c0-2.63 1.31-4.86 4-6.68 1.3-.88 2.83-1.35 4.4-1.37 2.34.09 4.53 1.14 6.08 2.89 2.71 2.9 5.93 5.27 9.5 7 3.77 1.61 7.84 2.39 11.94 2.28 7.9-.31 11.85-3.31 11.85-9a7.248 7.248 0 0 0-4-6.69c-2.67-1.52-6.85-3.04-12.54-4.56a110.25 110.25 0 0 1-14.36-4.86 25.464 25.464 0 0 1-9.58-7.37c-2.67-3.33-4-7.77-4-13.3-.12-4.57 1.33-9.04 4.09-12.68 2.88-3.67 6.64-6.54 10.94-8.36a35.52 35.52 0 0 1 14.36-3c5.3.02 10.56 1 15.51 2.89 4.79 1.65 9.01 4.61 12.19 8.55 1.29 1.53 2 3.47 2 5.47a7.048 7.048 0 0 1-2.88 5.78 7.672 7.672 0 0 1-4.87 1.67c-2.04.07-4.02-.7-5.47-2.13-1.91-2.3-4.33-4.12-7.07-5.32a23.435 23.435 0 0 0-9.8-2c-7.7 0-11.55 2.79-11.55 8.36-.09 2.02.68 3.97 2.12 5.39a14.65 14.65 0 0 0 5.4 3.19c2.18.76 5.25 1.7 9.2 2.82 4.67 1.24 9.24 2.81 13.68 4.71a23.48 23.48 0 0 1 9.27 7.45c2.53 3.33 3.79 7.74 3.8 13.22.09 4.71-1.47 9.31-4.41 13a27.83 27.83 0 0 1-11.42 8.46c-4.5 1.9-9.33 2.88-14.22 2.89-6.38.05-12.72-1.08-18.69-3.35A31.006 31.006 0 0 1 870 156.08a7.379 7.379 0 0 1-1.38-4.56Z"></path>
                    <path d="M938.84 151.52c0-2.63 1.32-4.86 3.95-6.68 1.3-.88 2.84-1.36 4.41-1.37 2.34.09 4.53 1.14 6.08 2.89 2.71 2.9 5.93 5.27 9.5 7 3.76 1.61 7.84 2.39 11.93 2.28 7.91-.31 11.87-3.31 11.86-9a7.276 7.276 0 0 0-4-6.69c-4-2-8.22-3.52-12.57-4.54-4.89-1.28-9.69-2.91-14.36-4.86a25.387 25.387 0 0 1-9.58-7.37c-2.67-3.33-4-7.77-4-13.3a20.08 20.08 0 0 1 4.18-12.7c2.89-3.67 6.65-6.54 10.95-8.36 4.52-1.99 9.42-3.01 14.36-3 5.28.04 10.52 1.03 15.45 2.93 4.77 1.64 8.98 4.59 12.16 8.51 1.29 1.53 2 3.47 2 5.47a7.057 7.057 0 0 1-2.89 5.78 7.665 7.665 0 0 1-4.86 1.67 7.35 7.35 0 0 1-5.47-2.13c-1.91-2.3-4.33-4.12-7.07-5.32a23.48 23.48 0 0 0-9.81-2c-7.7 0-11.55 2.79-11.55 8.36-.08 2.02.69 3.98 2.13 5.39a14.65 14.65 0 0 0 5.4 3.19c2.17.76 5.24 1.7 9.19 2.82 4.67 1.24 9.24 2.81 13.68 4.71 3.68 1.64 6.87 4.21 9.27 7.45 2.53 3.33 3.8 7.74 3.8 13.22.09 4.71-1.47 9.31-4.4 13a27.925 27.925 0 0 1-11.33 8.44c-4.51 1.91-9.35 2.9-14.25 2.91-6.39.05-12.73-1.08-18.7-3.35a31.03 31.03 0 0 1-14.13-10.79 7.4 7.4 0 0 1-1.33-4.56Z"></path>
                    <path fill="url(#3600e340-5a7b-4798-ad67-a1378c1ed0f9_comp-lmaijz7l_r_comp-ler2kfqi5)" d="M110.3 39.74v137.82H66.18V39.74h44.12z"></path>
                    <path fill="url(#281d01ef-c990-4793-9bd1-d5f23e08df58_comp-lmaijz7l_r_comp-ler2kfqi5)" d="M110.3 139.64v31.51H66.18v-31.51h44.12z"></path>
                    <path fill="url(#4c90191a-5451-4bad-bc11-bd638223bccf_comp-lmaijz7l_r_comp-ler2kfqi5)" d="M110.3 39.75v33.06H66.18V39.75h44.12z"></path>
                    <path d="M231.37 53.34c-7.65-16-19.62-29-35.57-38.64C179.7 4.94 159.72 0 136.39 0H0c0 18.68 15.58 34.33 36.57 38.59 2.26.6 4.59.93 6.93 1h10.71c1.41.1-7.6.16-6.17.16h86c14.67 0 26.87 2.87 36.25 8.54a53.543 53.543 0 0 1 21.19 23.25 77.855 77.855 0 0 1 7.08 33.46c0 19.82-5.49 35.94-16.33 47.92-10.56 11.66-26.34 17.33-48.24 17.33H84.28V210h52.11c23.53 0 43.55-4.79 59.52-14.23s27.79-22.21 35.45-38.1c7.5-15.55 11.3-33.27 11.3-52.66a118.72 118.72 0 0 0-11.29-51.67Z" fill="url(#e976b554-89ca-4e70-b1f9-b7ed4f7a6792_comp-lmaijz7l_r_comp-ler2kfqi5)"></path>
                    <path d="M231.37 53.34a89.355 89.355 0 0 0-5.15-9.28c4.24 14.5 5.42 29.73 3.47 44.71a105.82 105.82 0 0 1-19.29 48.63c-6 8.39-17.31 23.6-40 29.25-11 2.75-21.68 3.59-35.6 3.59H69.09c-25.83.66-47 18.18-47 39.71h114.3c23.53 0 43.55-4.79 59.52-14.23s27.79-22.21 35.45-38.1c7.5-15.55 11.3-33.27 11.3-52.66.17-17.84-3.69-35.48-11.29-51.62Z" fill="url(#817394ac-11f0-4817-9c1c-ec4dcaf7855d_comp-lmaijz7l_r_comp-ler2kfqi5)"></path>
                </g>
            </g>
        </g>
    </g>
</svg>